<?xml version="1.0" encoding="utf-8"?>
<!-- Generator: Adobe Illustrator 16.0.0, SVG Export Plug-In . SVG Version: 6.00 Build 0)  -->
<!DOCTYPE svg PUBLIC "-//W3C//DTD SVG 1.1//EN" "http://www.w3.org/Graphics/SVG/1.1/DTD/svg11.dtd">
<svg version="1.1" id="Warstwa_1" xmlns="http://www.w3.org/2000/svg" xmlns:xlink="http://www.w3.org/1999/xlink" x="0px" y="0px"
	 width="50px" height="50px" viewBox="0 0 50 50" enable-background="new 0 0 50 50" xml:space="preserve">
<path fill="#2D3C64" d="M47.284,13.898c-0.051-0.123-0.148-0.22-0.271-0.271c-0.061-0.025-0.125-0.039-0.19-0.039l-43.645,0
	c-0.065,0-0.13,0.013-0.191,0.039c-0.123,0.051-0.22,0.148-0.271,0.271c-0.051,0.122-0.051,0.26,0,0.382
	c0.025,0.062,0.062,0.117,0.108,0.163l21.822,21.822c0.098,0.098,0.226,0.146,0.354,0.146s0.256-0.049,0.354-0.146l21.821-21.822
	c0.047-0.046,0.084-0.102,0.109-0.163C47.334,14.158,47.334,14.02,47.284,13.898z"/>
</svg>
